<?xml version="1.0" encoding="utf-8"?>
<!-- Generator: Adobe Illustrator 19.0.0, SVG Export Plug-In . SVG Version: 6.00 Build 0)  -->
<svg version="1.1" id="图层_1" xmlns="http://www.w3.org/2000/svg" xmlns:xlink="http://www.w3.org/1999/xlink" x="0px" y="0px"
	 viewBox="0 0 120 21" style="enable-background:new 0 0 120 21;" xml:space="preserve">
<style type="text/css">
	.st0{fill:#282828;}
</style>
<g id="Character_1_">
	<g id="XMLID_1201_">
		<path id="XMLID_1227_" class="st0" d="M88.3,3.9h-4.4l1.7-0.5c-0.1-0.2-0.2-0.5-0.3-0.8c-0.1-0.3-0.3-0.6-0.5-0.9
			c-0.2-0.3-0.4-0.6-0.6-0.8l-2.1,0.5c0.2,0.2,0.3,0.5,0.5,0.8c0.2,0.3,0.3,0.6,0.4,0.8c0.1,0.3,0.2,0.5,0.3,0.8h-3.8v2.4h8.8V3.9z"
			/>
		<path id="XMLID_1223_" class="st0" d="M76.5,13.6c-0.5,0.6-1.2,1.5-2.7,1.6l-6-0.3l0-7.9c0-2.8,0.5-3.6,1.1-4.1
			c0.7-0.5,1.6-0.9,2-2.3c0-0.1,0-0.3,0-0.4c-0.1-0.1-0.2-0.1-0.3,0.1c-0.5,0.7-0.9,1-1.9,0.8c-3-0.7-6.3-1.2-6.3,4.4l0,0.6
			c0,0.4-0.3,0.6-0.6,0c0-0.1-0.1-0.2-0.1-0.2c-0.7-1.5-1.6-2.7-3.1-3.7c-1.6-1-3.4-1.6-5.5-1.6c-2.1,0-4.1,0.6-5.7,1.8
			c-1,0.8-1.7,1.9-2.1,2.8c-0.1,0.2-0.3,0.5-0.4,0.2c-0.3-0.7,0.5-2,0.8-3c0.1-0.3,0.1-0.5,0-0.8c-0.1-0.6-0.4-0.3-0.4-0.1
			c-0.3,1.3-1.8,0.5-2.5,0.1c-1.2-0.7-2.5-1.1-4-1.1c-2.8,0-5.3,1.1-7.2,3c-1.8,1.8-3,4.4-3,7.2c0,2.8,1,5.4,2.8,7.3
			c1.8,1.8,4.5,2.8,7.3,2.8c2.1,0,6.6-1.3,6.1-4c0-0.2-0.1-0.6-0.1-0.7c0.1-0.2,0.2-0.1,0.3,0c0.2,0.3,0.4,0.7,0.6,1
			c1.3,2,4.3,3.7,7.5,3.7c1.7,0,3.4-0.4,4.8-1.2c1.7-0.9,2.9-2.4,3.7-4.1c0-0.1,0.1-0.1,0.1-0.2c0.2-0.5,0.6-0.6,0.6,0.1l0,4
			c0,1.2,1.1,1.6,2.9,1.5h7.9c2,0,2.9-0.7,3.1-2.2c0.2-1.2,0-2.1,0.1-2.9c0.1-1.2,0.5-1.8,0.5-1.9C77.2,13.5,76.9,13.3,76.5,13.6z
			 M41.7,13.7c-0.8,0.8-1.8,1.2-3,1.2c-1.2,0-2.2-0.5-3-1.2c-0.8-0.8-1.2-1.8-1.2-3c0-1.2,0.5-2.2,1.2-3c0.8-0.8,1.8-1.2,3-1.2
			c1.2,0,2.2,0.5,3,1.2c0.8,0.8,1.2,1.8,1.2,3C43,11.9,42.5,13,41.7,13.7z M56.2,13.7c-0.8,0.8-1.8,1.2-3,1.2c-1.2,0-2.2-0.5-3-1.2
			c-0.8-0.8-1.2-1.8-1.2-3s0.5-2.2,1.2-3c0.8-0.8,1.8-1.2,3-1.2c1.2,0,2.2,0.5,3,1.2c0.8,0.8,1.2,1.8,1.2,3S57,13,56.2,13.7z"/>
		<path id="XMLID_1222_" class="st0" d="M29.8,17c-1.2-0.9-1.7-1.3-1.1-2.6c0.2-0.4-0.1-0.6-0.4-0.4c-1.4,1.1-3,1.4-4.7,0.8
			c-4.6-1.5-3.1-8.9,1.8-8.3c1.9,0.2,3.5-0.3,4.4-2.2c0.5-1,0.7-2,0.9-3.9C30.8,0,30.3,0,30.2,0.2c-0.3,0.8-0.6,1-1,1.1
			c-0.9,0.2-1.8-0.2-2.8-0.4c-1.5-0.2-2.7-0.2-4.1,0.2c-1.7,0.5-3.2,1.3-4.4,2.5C16.1,5.4,15,8,15,10.8c0,1.2,0.1,2.3,0.4,3.3
			c0,0,0,0,0,0c0.3,1.2,0.1,1.1-0.8,1.2H7.7l6.2-6.8c1.8-1.8,1.8-2.7,1.8-5c0-0.7-0.1-1.5,0.1-2.2C15.9,1,15.7,0.9,15.4,1
			c-0.7,0.2-1.9,0.2-3.9,0.2l-9,0C2,1.2,1.8,0.9,2,0.5C2,0.4,2,0.1,1.8,0.1c-1.3,0.6-1.6,3.3-1.5,5c0,0.9,0.5,1.4,1.2,1.4h7.1
			l-7.3,7.8c-0.5,0.6-1,1.4-1,2.5l0,2.2c0,1,0.6,1.6,1.7,1.8h12.2c1.2-0.2,2-0.8,1.9-2.2v-1.5c0.1-0.4,0.4-0.4,0.6-0.2
			c0.3,0.4,0.5,0.7,0.9,1c1.8,1.8,4.4,3,7.2,3c0.9,0,2-0.2,3.1-0.7c1.1-0.5,2.2-1.3,2.4-2.2C30.4,17.7,30.2,17.4,29.8,17z"/>
		<path id="XMLID_1221_" class="st0" d="M81.1,16.4l2.1-0.5c-0.2-2.8-0.5-5.6-1-8.3L80.2,8C80.6,10.8,81,13.6,81.1,16.4z"/>
		<path id="XMLID_1217_" class="st0" d="M98.6,3.2c-0.2,0.2-0.5,0.5-1.2,0.6h-1.6v0h-1.9V0.8h-2.5v8.6h-1.7c-1,0-1.6,0.2-1.6,1.1
			v8.8c0,1,0.6,1.3,1.6,1.3l6.6,0c1.4,0,1.9-0.7,1.8-1.6l0-8.5c0-0.9-0.8-1.2-1.7-1.2h-2.6V6.1h1.9v0h1.4c0.8,0,1.1-0.3,1.2-1
			c0.1-0.5-0.1-0.9,0-1.2C98.5,3.5,98.7,3.1,98.6,3.2z M95.5,11.8c0.1,0,0.3,0,0.3,0.3v6c0,0.1-0.1,0.2-0.2,0.2h-4.8
			c-0.1,0-0.2,0-0.2-0.2v-6c0-0.2,0.1-0.3,0.3-0.3H95.5z"/>
		<path id="XMLID_1216_" class="st0" d="M116,8.8V6.2h1.9v0h0.2c0.7,0,1-0.3,1.1-0.9c0.1-0.5,0-0.8,0-1.1c0-0.4,0.2-0.7,0.2-0.7
			c-0.2,0.2-0.4,0.5-1.1,0.5h-0.4v0H116V0.8h-2.2V4h-1.4c0.1-0.7,0.3-1.4,0.4-2.1l-2.1-0.4c-0.1,0.6-0.2,1.1-0.3,1.7
			c-0.1,0.6-0.2,1.1-0.4,1.6c-0.1,0.5-0.3,1-0.5,1.5c-0.2,0.5-0.4,0.9-0.6,1.2c0.7,0.3,1.2,0.7,1.8,1.1c0.2-0.3,0.4-0.7,0.5-1.1
			c0.2-0.4,0.3-0.9,0.4-1.3h2v2.6h-4.3V11h10.2V8.8H116z"/>
		<path id="XMLID_1208_" class="st0" d="M107.3,5.5V3.7h2.2V1.6h-9.1v2.1h2v1.8c-1.4,0-1.9,0.1-1.9,1.1v12.8c0,0.8,0.3,1.1,1.8,1.1
			l5.2,0c1,0,1.7-0.2,1.7-1.1V7.5v-1C109.1,5.7,108.8,5.5,107.3,5.5z M106.6,7.6h0.5c0.2,0,0.2,0,0.2,0.2v3.9c0,0,0,0-0.1,0
			c0,0,0,0-0.1,0h-0.4c-0.1,0-0.1,0-0.2,0c0,0,0-0.1,0-0.3V7.6z M104.2,3.7h1.2v1.8h-1.2V3.7z M102.2,7.8c0-0.1,0.1-0.2,0.2-0.2h0.5
			v2.2c0,0.3,0,0.6,0,0.9c0,0.3-0.1,0.6-0.2,1c-0.1,0.3-0.3,0.6-0.5,0.9V7.8z M102.2,13L103,14c0.7-0.8,1.2-1.6,1.3-2.7
			c0.1-0.5,0.1-0.9,0.1-1.3V7.6h0.7v4.1c0,1.2,0.3,1.5,1.5,1.5h0.7v1.4h-5.2V13z M107.1,18.2h-4.8c-0.2,0-0.2-0.1-0.2-0.2v-1.6h5.2
			V18C107.4,18.1,107.3,18.2,107.1,18.2z"/>
		<path id="XMLID_1204_" class="st0" d="M117.7,12.2l-5.7,0c-1.1,0-1.7,0.3-1.7,1.2v5.8c0,0.7,0.1,1.2,1.8,1.2l5.2,0
			c1.2,0.1,1.8-0.2,1.9-1.2v-5.7C119.2,12.4,118.4,12.2,117.7,12.2z M116.8,18.3h-4.1c-0.1,0-0.2,0-0.2-0.2v-3.4
			c0-0.2,0-0.3,0.2-0.3l4.1,0c0.2,0,0.3,0,0.3,0.2l0,3.5C117,18.2,116.9,18.3,116.8,18.3z"/>
		<path id="XMLID_1203_" class="st0" d="M85.8,16.7c0.6-2.9,1-5.9,1.5-8.9l-2.3-0.5c-0.2,3.3-0.6,6.7-1.2,9.9
			c-0.8,0.2-1.6,0.4-2.4,0.6c-0.7,0.2-1.4,0.3-2,0.4l0.6,2.6c0.7-0.2,1.6-0.4,2.4-0.7c0.9-0.2,1.8-0.5,2.7-0.8
			c0.9-0.3,1.9-0.5,2.8-0.8l-0.3-2.4L85.8,16.7z"/>
	</g>
</g>
</svg>
